<svg id="svg" xmlns="http://www.w3.org/2000/svg" xmlns:xlink="http://www.w3.org/1999/xlink" width="400" height="381.25" viewBox="0, 0, 400,381.25"><g id="svgg"><path id="path0" d="M314.022 24.902 C 309.747 38.597,306.250 55.561,306.250 62.598 C 306.250 82.440,292.939 83.190,247.081 65.929 C 223.806 57.168,195.604 50.000,184.412 50.000 C 154.217 50.000,124.729 57.006,128.595 63.261 C 130.461 66.280,127.402 68.750,121.797 68.750 C 100.732 68.750,62.689 129.683,59.397 168.696 C 58.380 180.757,56.084 194.844,54.296 200.000 C 51.619 207.718,47.799 221.948,40.873 250.000 C 40.448 251.719,35.409 261.909,29.675 272.645 C 23.940 283.381,21.011 293.928,23.166 296.083 C 25.321 298.237,23.501 300.000,19.123 300.000 C 14.496 300.000,12.721 304.062,14.885 309.700 C 16.932 315.034,16.121 317.863,13.083 315.986 C 7.863 312.759,-0.000 325.836,-0.000 337.747 C 0.000 343.256,77.563 368.543,102.673 371.220 C 110.087 372.011,118.847 374.200,122.139 376.086 C 133.885 382.813,273.682 382.189,277.883 375.391 C 280.273 371.524,276.612 368.750,269.119 368.750 C 262.041 368.750,256.250 365.938,256.250 362.500 C 256.250 359.063,252.483 356.250,247.878 356.250 C 228.668 356.250,215.653 307.398,228.346 282.932 C 259.381 223.112,348.578 255.102,336.929 321.875 C 332.456 347.518,334.820 357.806,342.527 346.238 C 344.919 342.649,351.936 337.844,358.122 335.559 C 418.287 313.336,406.464 147.736,342.259 113.375 L 326.919 105.165 360.813 71.808 C 394.242 38.908,394.512 38.348,380.559 30.880 C 372.779 26.716,360.783 18.065,353.903 11.655 C 334.286 -6.621,322.654 -2.757,314.022 24.902 " stroke="none" fill="#00b100" fill-rule="evenodd"></path></g></svg>